<mxfile host="app.diagrams.net" modified="2024-06-03T14:27:40.451Z" agent="Mozilla/5.0 (Windows NT 10.0; Win64; x64) AppleWebKit/537.36 (KHTML, like Gecko) Chrome/125.0.0.0 Safari/537.36" etag="xf7co6MXQF6cyM10ugQi" version="24.4.13" type="device">
  <diagram id="C5RBs43oDa-KdzZeNtuy" name="Page-1">
    <mxGraphModel dx="1646" dy="941" grid="1" gridSize="10" guides="1" tooltips="1" connect="1" arrows="1" fold="1" page="1" pageScale="1" pageWidth="827" pageHeight="1169" math="0" shadow="0">
      <root>
        <mxCell id="WIyWlLk6GJQsqaUBKTNV-0" />
        <mxCell id="WIyWlLk6GJQsqaUBKTNV-1" parent="WIyWlLk6GJQsqaUBKTNV-0" />
        <mxCell id="-JaAmX0jkjrFflBvPHDF-0" value="&lt;h1 style=&quot;margin-top: 0px; font-size: 13px;&quot;&gt;&lt;font style=&quot;font-size: 13px; font-weight: normal;&quot;&gt;Creare lo schema e-r con tutte le entità necessarie a gestire le informazioni di un archivio di E-sports. (https://www.drawio.com/)&lt;/font&gt;&lt;/h1&gt;&lt;h1 style=&quot;margin-top: 0px; font-size: 13px;&quot;&gt;&lt;font style=&quot;font-size: 13px; font-weight: normal;&quot;&gt;Ciascun videogame ha un nome, una trama, una data di rilascio ed è prodotto da una software house, la quale, a sua volta, è identificata da un nome, una partita iva, città e nazione.&lt;/font&gt;&lt;/h1&gt;&lt;h1 style=&quot;margin-top: 0px; font-size: 13px;&quot;&gt;&lt;font style=&quot;font-size: 13px; font-weight: normal;&quot;&gt;I videogames possono essere disponibili su diverse piattaforme (PlayStation 4, PlayStation 5, XBox One, XBox Serie X, Windows, Nintendo Switch, Google Stadia, ...) e hanno diverse categorie (avventura, strategia, RPG, sparatutto, calcio, ...) e classificazioni PEGI (PEGI 7, PEGI 12, PEGI 18, Violenza, Paura, Gioco d&#39;azzardo, ...)&lt;/font&gt;&lt;/h1&gt;&lt;h1 style=&quot;margin-top: 0px; font-size: 13px;&quot;&gt;&lt;font style=&quot;font-size: 13px; font-weight: normal;&quot;&gt;Periodicamente, vengono organizzati dei tornei a cui possono partecipare tutti i videogiocatori del mondo.&lt;/font&gt;&lt;/h1&gt;&lt;h1 style=&quot;margin-top: 0px; font-size: 13px;&quot;&gt;&lt;font style=&quot;font-size: 13px; font-weight: normal;&quot;&gt;Ogni torneo è caratterizzato da un nome, l&#39;anno e la città in cui si svolge. I giocatori, al momento dell&#39;iscrizione, devono fornire nome, cognome, nickname di gioco, e città di provenienza.&lt;/font&gt;&lt;/h1&gt;&lt;h1 style=&quot;margin-top: 0px; font-size: 13px;&quot;&gt;&lt;font style=&quot;font-size: 13px; font-weight: normal;&quot;&gt;I videogames possono essere recensiti dai giocatori, i quali oltre al titolo e al testo, possono valutare i videogame con un rating da 1 a 5.&lt;/font&gt;&lt;/h1&gt;&lt;h1 style=&quot;margin-top: 0px; font-size: 13px;&quot;&gt;&lt;font style=&quot;font-size: 13px; font-weight: normal;&quot;&gt;Ogni anno vengono votati i migliori videogiochi, che possono così vincere diversi premi (gioco dell&#39;anno, miglior narrativa, miglior colonna sonora, miglior gioco indipendente, gioco più atteso, ...)&lt;/font&gt;&lt;/h1&gt;" style="text;html=1;whiteSpace=wrap;overflow=hidden;rounded=0;" vertex="1" parent="WIyWlLk6GJQsqaUBKTNV-1">
          <mxGeometry x="200" y="100" width="860" height="230" as="geometry" />
        </mxCell>
        <mxCell id="KzeRNUWzLIYxNrCnrnHk-50" value="&lt;div style=&quot;box-sizing:border-box;width:100%;background:#e4e4e4;padding:2px;&quot;&gt;&amp;nbsp; &amp;nbsp;software_house&lt;/div&gt;&lt;table style=&quot;width:100%;font-size:1em;&quot; cellpadding=&quot;2&quot; cellspacing=&quot;0&quot;&gt;&lt;tbody&gt;&lt;tr&gt;&lt;td&gt;PK&lt;/td&gt;&lt;td&gt;Id&lt;/td&gt;&lt;/tr&gt;&lt;tr&gt;&lt;td&gt;&lt;br&gt;&lt;/td&gt;&lt;td&gt;name&lt;/td&gt;&lt;/tr&gt;&lt;tr&gt;&lt;td&gt;&lt;/td&gt;&lt;td&gt;VAT&lt;br&gt;city&lt;br&gt;nation&lt;/td&gt;&lt;/tr&gt;&lt;/tbody&gt;&lt;/table&gt;" style="verticalAlign=top;align=left;overflow=fill;html=1;whiteSpace=wrap;" vertex="1" parent="WIyWlLk6GJQsqaUBKTNV-1">
          <mxGeometry x="930" y="400" width="110" height="110" as="geometry" />
        </mxCell>
        <mxCell id="KzeRNUWzLIYxNrCnrnHk-51" value="&lt;div style=&quot;box-sizing:border-box;width:100%;background:#e4e4e4;padding:2px;&quot;&gt;&amp;nbsp; &amp;nbsp;&lt;span style=&quot;white-space: pre;&quot;&gt;&#x9;&lt;/span&gt;videogame&lt;/div&gt;&lt;table style=&quot;width:100%;font-size:1em;&quot; cellpadding=&quot;2&quot; cellspacing=&quot;0&quot;&gt;&lt;tbody&gt;&lt;tr&gt;&lt;td&gt;PK&lt;/td&gt;&lt;td&gt;Id&lt;/td&gt;&lt;/tr&gt;&lt;tr&gt;&lt;td&gt;&lt;br&gt;&lt;/td&gt;&lt;td&gt;title&lt;/td&gt;&lt;/tr&gt;&lt;tr&gt;&lt;td&gt;&amp;nbsp; &amp;nbsp; &lt;br&gt;FK&amp;nbsp;&lt;br&gt;FK&lt;br&gt;&lt;/td&gt;&lt;td&gt;plot&lt;br&gt;release_date&lt;br&gt;sofware_house_id&lt;br&gt;pegi_id&lt;br&gt;&lt;br&gt;&lt;/td&gt;&lt;/tr&gt;&lt;/tbody&gt;&lt;/table&gt;" style="verticalAlign=top;align=left;overflow=fill;html=1;whiteSpace=wrap;" vertex="1" parent="WIyWlLk6GJQsqaUBKTNV-1">
          <mxGeometry x="560" y="442" width="190" height="118" as="geometry" />
        </mxCell>
        <mxCell id="KzeRNUWzLIYxNrCnrnHk-53" value="" style="html=1;whiteSpace=wrap;aspect=fixed;shape=isoRectangle;" vertex="1" parent="WIyWlLk6GJQsqaUBKTNV-1">
          <mxGeometry x="810" y="462" width="80" height="48" as="geometry" />
        </mxCell>
        <mxCell id="KzeRNUWzLIYxNrCnrnHk-60" style="edgeStyle=orthogonalEdgeStyle;rounded=0;orthogonalLoop=1;jettySize=auto;html=1;endArrow=none;endFill=0;" edge="1" parent="WIyWlLk6GJQsqaUBKTNV-1" target="KzeRNUWzLIYxNrCnrnHk-53">
          <mxGeometry relative="1" as="geometry">
            <mxPoint x="749" y="536" as="sourcePoint" />
          </mxGeometry>
        </mxCell>
        <mxCell id="KzeRNUWzLIYxNrCnrnHk-62" style="edgeStyle=orthogonalEdgeStyle;rounded=0;orthogonalLoop=1;jettySize=auto;html=1;exitX=0;exitY=0.25;exitDx=0;exitDy=0;endArrow=none;endFill=0;" edge="1" parent="WIyWlLk6GJQsqaUBKTNV-1" source="KzeRNUWzLIYxNrCnrnHk-50" target="KzeRNUWzLIYxNrCnrnHk-53">
          <mxGeometry relative="1" as="geometry" />
        </mxCell>
        <UserObject label="N" placeholders="1" name="Variable" id="KzeRNUWzLIYxNrCnrnHk-66">
          <mxCell style="text;html=1;strokeColor=none;fillColor=none;align=center;verticalAlign=middle;whiteSpace=wrap;overflow=hidden;" vertex="1" parent="WIyWlLk6GJQsqaUBKTNV-1">
            <mxGeometry x="784" y="510" width="20" height="20" as="geometry" />
          </mxCell>
        </UserObject>
        <UserObject label="1" placeholders="1" name="Variable" id="KzeRNUWzLIYxNrCnrnHk-70">
          <mxCell style="text;html=1;strokeColor=none;fillColor=none;align=center;verticalAlign=middle;whiteSpace=wrap;overflow=hidden;" vertex="1" parent="WIyWlLk6GJQsqaUBKTNV-1">
            <mxGeometry x="900" y="400" width="20" height="20" as="geometry" />
          </mxCell>
        </UserObject>
        <mxCell id="KzeRNUWzLIYxNrCnrnHk-76" style="edgeStyle=orthogonalEdgeStyle;rounded=0;orthogonalLoop=1;jettySize=auto;html=1;exitX=0;exitY=0.25;exitDx=0;exitDy=0;endArrow=none;endFill=0;" edge="1" parent="WIyWlLk6GJQsqaUBKTNV-1" source="KzeRNUWzLIYxNrCnrnHk-71" target="KzeRNUWzLIYxNrCnrnHk-72">
          <mxGeometry relative="1" as="geometry" />
        </mxCell>
        <mxCell id="KzeRNUWzLIYxNrCnrnHk-71" value="&lt;div style=&quot;box-sizing:border-box;width:100%;background:#e4e4e4;padding:2px;&quot;&gt;&amp;nbsp; &amp;nbsp;&lt;span style=&quot;white-space: pre;&quot;&gt;&#x9;&lt;/span&gt;console&lt;/div&gt;&lt;table style=&quot;width:100%;font-size:1em;&quot; cellpadding=&quot;2&quot; cellspacing=&quot;0&quot;&gt;&lt;tbody&gt;&lt;tr&gt;&lt;td&gt;PK&lt;/td&gt;&lt;td&gt;Id&lt;/td&gt;&lt;/tr&gt;&lt;tr&gt;&lt;td&gt;&lt;br&gt;&lt;/td&gt;&lt;td&gt;name&lt;/td&gt;&lt;/tr&gt;&lt;tr&gt;&lt;td&gt;&lt;/td&gt;&lt;td&gt;company&amp;nbsp;&lt;br&gt;serial_number&lt;br&gt;&lt;/td&gt;&lt;/tr&gt;&lt;/tbody&gt;&lt;/table&gt;" style="verticalAlign=top;align=left;overflow=fill;html=1;whiteSpace=wrap;" vertex="1" parent="WIyWlLk6GJQsqaUBKTNV-1">
          <mxGeometry x="960" y="581" width="120" height="90" as="geometry" />
        </mxCell>
        <mxCell id="KzeRNUWzLIYxNrCnrnHk-72" value="&lt;font style=&quot;font-size: 7px;&quot;&gt;console_videogame&lt;/font&gt;" style="html=1;whiteSpace=wrap;aspect=fixed;shape=isoRectangle;" vertex="1" parent="WIyWlLk6GJQsqaUBKTNV-1">
          <mxGeometry x="810" y="602" width="80" height="48" as="geometry" />
        </mxCell>
        <UserObject label="N" placeholders="1" name="Variable" id="KzeRNUWzLIYxNrCnrnHk-73">
          <mxCell style="text;html=1;strokeColor=none;fillColor=none;align=center;verticalAlign=middle;whiteSpace=wrap;overflow=hidden;" vertex="1" parent="WIyWlLk6GJQsqaUBKTNV-1">
            <mxGeometry x="784" y="552" width="20" height="20" as="geometry" />
          </mxCell>
        </UserObject>
        <UserObject label="N" placeholders="1" name="Variable" id="KzeRNUWzLIYxNrCnrnHk-74">
          <mxCell style="text;html=1;strokeColor=none;fillColor=none;align=center;verticalAlign=middle;whiteSpace=wrap;overflow=hidden;" vertex="1" parent="WIyWlLk6GJQsqaUBKTNV-1">
            <mxGeometry x="930" y="612" width="20" height="20" as="geometry" />
          </mxCell>
        </UserObject>
        <mxCell id="KzeRNUWzLIYxNrCnrnHk-75" style="edgeStyle=orthogonalEdgeStyle;rounded=0;orthogonalLoop=1;jettySize=auto;html=1;exitX=1;exitY=0.883;exitDx=0;exitDy=0;endArrow=none;endFill=0;exitPerimeter=0;" edge="1" parent="WIyWlLk6GJQsqaUBKTNV-1" source="KzeRNUWzLIYxNrCnrnHk-51" target="KzeRNUWzLIYxNrCnrnHk-72">
          <mxGeometry relative="1" as="geometry">
            <mxPoint x="750" y="545" as="sourcePoint" />
            <mxPoint x="807" y="496" as="targetPoint" />
          </mxGeometry>
        </mxCell>
        <mxCell id="KzeRNUWzLIYxNrCnrnHk-83" style="edgeStyle=orthogonalEdgeStyle;rounded=0;orthogonalLoop=1;jettySize=auto;html=1;exitX=1;exitY=0.5;exitDx=0;exitDy=0;endArrow=none;endFill=0;" edge="1" parent="WIyWlLk6GJQsqaUBKTNV-1" source="KzeRNUWzLIYxNrCnrnHk-78" target="KzeRNUWzLIYxNrCnrnHk-79">
          <mxGeometry relative="1" as="geometry" />
        </mxCell>
        <mxCell id="KzeRNUWzLIYxNrCnrnHk-78" value="&lt;div style=&quot;box-sizing:border-box;width:100%;background:#e4e4e4;padding:2px;&quot;&gt;&amp;nbsp; &amp;nbsp;&lt;span style=&quot;white-space: pre;&quot;&gt;&#x9;&amp;nbsp;&lt;/span&gt;&amp;nbsp;category&lt;/div&gt;&lt;table style=&quot;width:100%;font-size:1em;&quot; cellpadding=&quot;2&quot; cellspacing=&quot;0&quot;&gt;&lt;tbody&gt;&lt;tr&gt;&lt;td&gt;PK&lt;/td&gt;&lt;td&gt;Id&lt;/td&gt;&lt;/tr&gt;&lt;tr&gt;&lt;td&gt;&lt;br&gt;&lt;/td&gt;&lt;td&gt;name&lt;/td&gt;&lt;/tr&gt;&lt;tr&gt;&lt;td&gt;&lt;/td&gt;&lt;td&gt;&lt;br&gt;&lt;br&gt;&lt;/td&gt;&lt;/tr&gt;&lt;/tbody&gt;&lt;/table&gt;" style="verticalAlign=top;align=left;overflow=fill;html=1;whiteSpace=wrap;" vertex="1" parent="WIyWlLk6GJQsqaUBKTNV-1">
          <mxGeometry x="290" y="380" width="120" height="60" as="geometry" />
        </mxCell>
        <mxCell id="KzeRNUWzLIYxNrCnrnHk-79" value="&lt;font style=&quot;font-size: 7px;&quot;&gt;category_videogame&lt;/font&gt;" style="html=1;whiteSpace=wrap;aspect=fixed;shape=isoRectangle;" vertex="1" parent="WIyWlLk6GJQsqaUBKTNV-1">
          <mxGeometry x="410" y="442" width="90" height="54" as="geometry" />
        </mxCell>
        <UserObject label="N" placeholders="1" name="Variable" id="KzeRNUWzLIYxNrCnrnHk-84">
          <mxCell style="text;html=1;strokeColor=none;fillColor=none;align=center;verticalAlign=middle;whiteSpace=wrap;overflow=hidden;" vertex="1" parent="WIyWlLk6GJQsqaUBKTNV-1">
            <mxGeometry x="420" y="380" width="20" height="20" as="geometry" />
          </mxCell>
        </UserObject>
        <UserObject label="N" placeholders="1" name="Variable" id="KzeRNUWzLIYxNrCnrnHk-86">
          <mxCell style="text;html=1;strokeColor=none;fillColor=none;align=center;verticalAlign=middle;whiteSpace=wrap;overflow=hidden;" vertex="1" parent="WIyWlLk6GJQsqaUBKTNV-1">
            <mxGeometry x="530" y="442" width="20" height="20" as="geometry" />
          </mxCell>
        </UserObject>
        <mxCell id="KzeRNUWzLIYxNrCnrnHk-89" style="edgeStyle=orthogonalEdgeStyle;rounded=0;orthogonalLoop=1;jettySize=auto;html=1;exitX=1;exitY=0.5;exitDx=0;exitDy=0;endArrow=none;endFill=0;" edge="1" parent="WIyWlLk6GJQsqaUBKTNV-1" source="KzeRNUWzLIYxNrCnrnHk-87" target="KzeRNUWzLIYxNrCnrnHk-88">
          <mxGeometry relative="1" as="geometry" />
        </mxCell>
        <mxCell id="KzeRNUWzLIYxNrCnrnHk-87" value="&lt;div style=&quot;box-sizing:border-box;width:100%;background:#e4e4e4;padding:2px;&quot;&gt;&amp;nbsp; &amp;nbsp;&lt;span style=&quot;white-space: pre;&quot;&gt;&#x9;&amp;nbsp;&lt;/span&gt;&amp;nbsp; &amp;nbsp; pegi&lt;/div&gt;&lt;table style=&quot;width:100%;font-size:1em;&quot; cellpadding=&quot;2&quot; cellspacing=&quot;0&quot;&gt;&lt;tbody&gt;&lt;tr&gt;&lt;td&gt;PK&lt;/td&gt;&lt;td&gt;Id&lt;/td&gt;&lt;/tr&gt;&lt;tr&gt;&lt;td&gt;&lt;br&gt;&lt;/td&gt;&lt;td&gt;type&lt;/td&gt;&lt;/tr&gt;&lt;tr&gt;&lt;td&gt;&lt;/td&gt;&lt;td&gt;&lt;br&gt;&lt;br&gt;&lt;/td&gt;&lt;/tr&gt;&lt;/tbody&gt;&lt;/table&gt;" style="verticalAlign=top;align=left;overflow=fill;html=1;whiteSpace=wrap;" vertex="1" parent="WIyWlLk6GJQsqaUBKTNV-1">
          <mxGeometry x="250" y="518" width="120" height="60" as="geometry" />
        </mxCell>
        <mxCell id="KzeRNUWzLIYxNrCnrnHk-139" style="edgeStyle=orthogonalEdgeStyle;rounded=0;orthogonalLoop=1;jettySize=auto;html=1;entryX=0.002;entryY=0.904;entryDx=0;entryDy=0;endArrow=none;endFill=0;entryPerimeter=0;" edge="1" parent="WIyWlLk6GJQsqaUBKTNV-1" source="KzeRNUWzLIYxNrCnrnHk-88" target="KzeRNUWzLIYxNrCnrnHk-51">
          <mxGeometry relative="1" as="geometry" />
        </mxCell>
        <mxCell id="KzeRNUWzLIYxNrCnrnHk-88" value="" style="html=1;whiteSpace=wrap;aspect=fixed;shape=isoRectangle;" vertex="1" parent="WIyWlLk6GJQsqaUBKTNV-1">
          <mxGeometry x="415" y="524" width="80" height="48" as="geometry" />
        </mxCell>
        <UserObject label="N" placeholders="1" name="Variable" id="KzeRNUWzLIYxNrCnrnHk-91">
          <mxCell style="text;html=1;strokeColor=none;fillColor=none;align=center;verticalAlign=middle;whiteSpace=wrap;overflow=hidden;" vertex="1" parent="WIyWlLk6GJQsqaUBKTNV-1">
            <mxGeometry x="380" y="524" width="20" height="20" as="geometry" />
          </mxCell>
        </UserObject>
        <UserObject label="1" placeholders="1" name="Variable" id="KzeRNUWzLIYxNrCnrnHk-93">
          <mxCell style="text;html=1;strokeColor=none;fillColor=none;align=center;verticalAlign=middle;whiteSpace=wrap;overflow=hidden;" vertex="1" parent="WIyWlLk6GJQsqaUBKTNV-1">
            <mxGeometry x="530" y="524" width="20" height="20" as="geometry" />
          </mxCell>
        </UserObject>
        <mxCell id="KzeRNUWzLIYxNrCnrnHk-96" value="&lt;div style=&quot;box-sizing:border-box;width:100%;background:#e4e4e4;padding:2px;&quot;&gt;&amp;nbsp; &amp;nbsp; &amp;nbsp; &amp;nbsp; tournament&lt;/div&gt;&lt;table style=&quot;width:100%;font-size:1em;&quot; cellpadding=&quot;2&quot; cellspacing=&quot;0&quot;&gt;&lt;tbody&gt;&lt;tr&gt;&lt;td&gt;PK&lt;/td&gt;&lt;td&gt;Id&lt;/td&gt;&lt;/tr&gt;&lt;tr&gt;&lt;td&gt;&lt;br&gt;&lt;/td&gt;&lt;td&gt;name&lt;/td&gt;&lt;/tr&gt;&lt;tr&gt;&lt;td&gt;&lt;/td&gt;&lt;td&gt;date&lt;br&gt;city&lt;br&gt;&lt;/td&gt;&lt;/tr&gt;&lt;/tbody&gt;&lt;/table&gt;" style="verticalAlign=top;align=left;overflow=fill;html=1;whiteSpace=wrap;" vertex="1" parent="WIyWlLk6GJQsqaUBKTNV-1">
          <mxGeometry x="230" y="926" width="110" height="100" as="geometry" />
        </mxCell>
        <mxCell id="KzeRNUWzLIYxNrCnrnHk-97" style="edgeStyle=orthogonalEdgeStyle;rounded=0;orthogonalLoop=1;jettySize=auto;html=1;endArrow=none;endFill=0;entryX=0.047;entryY=1.003;entryDx=0;entryDy=0;entryPerimeter=0;" edge="1" parent="WIyWlLk6GJQsqaUBKTNV-1" source="KzeRNUWzLIYxNrCnrnHk-98" target="KzeRNUWzLIYxNrCnrnHk-51">
          <mxGeometry relative="1" as="geometry">
            <mxPoint x="520" y="720" as="sourcePoint" />
            <mxPoint x="660" y="560" as="targetPoint" />
          </mxGeometry>
        </mxCell>
        <mxCell id="KzeRNUWzLIYxNrCnrnHk-100" style="edgeStyle=orthogonalEdgeStyle;rounded=0;orthogonalLoop=1;jettySize=auto;html=1;entryX=0;entryY=0.25;entryDx=0;entryDy=0;endArrow=none;endFill=0;" edge="1" parent="WIyWlLk6GJQsqaUBKTNV-1" source="KzeRNUWzLIYxNrCnrnHk-98" target="KzeRNUWzLIYxNrCnrnHk-96">
          <mxGeometry relative="1" as="geometry" />
        </mxCell>
        <mxCell id="KzeRNUWzLIYxNrCnrnHk-98" value="&lt;font style=&quot;font-size: 7px;&quot;&gt;tournament_videogame&lt;/font&gt;" style="html=1;whiteSpace=wrap;aspect=fixed;shape=isoRectangle;" vertex="1" parent="WIyWlLk6GJQsqaUBKTNV-1">
          <mxGeometry x="350" y="598" width="80" height="48" as="geometry" />
        </mxCell>
        <mxCell id="KzeRNUWzLIYxNrCnrnHk-101" style="edgeStyle=orthogonalEdgeStyle;rounded=0;orthogonalLoop=1;jettySize=auto;html=1;exitX=0.5;exitY=1;exitDx=0;exitDy=0;" edge="1" parent="WIyWlLk6GJQsqaUBKTNV-1" source="KzeRNUWzLIYxNrCnrnHk-96" target="KzeRNUWzLIYxNrCnrnHk-96">
          <mxGeometry relative="1" as="geometry" />
        </mxCell>
        <UserObject label="N" placeholders="1" name="Variable" id="KzeRNUWzLIYxNrCnrnHk-102">
          <mxCell style="text;html=1;strokeColor=none;fillColor=none;align=center;verticalAlign=middle;whiteSpace=wrap;overflow=hidden;" vertex="1" parent="WIyWlLk6GJQsqaUBKTNV-1">
            <mxGeometry x="540" y="572" width="20" height="20" as="geometry" />
          </mxCell>
        </UserObject>
        <UserObject label="N" placeholders="1" name="Variable" id="KzeRNUWzLIYxNrCnrnHk-103">
          <mxCell style="text;html=1;strokeColor=none;fillColor=none;align=center;verticalAlign=middle;whiteSpace=wrap;overflow=hidden;" vertex="1" parent="WIyWlLk6GJQsqaUBKTNV-1">
            <mxGeometry x="350" y="926" width="20" height="20" as="geometry" />
          </mxCell>
        </UserObject>
        <mxCell id="KzeRNUWzLIYxNrCnrnHk-104" value="&lt;div style=&quot;box-sizing:border-box;width:100%;background:#e4e4e4;padding:2px;&quot;&gt;&amp;nbsp; &amp;nbsp; &amp;nbsp; &amp;nbsp; player&lt;/div&gt;&lt;table style=&quot;width:100%;font-size:1em;&quot; cellpadding=&quot;2&quot; cellspacing=&quot;0&quot;&gt;&lt;tbody&gt;&lt;tr&gt;&lt;td&gt;PK&lt;/td&gt;&lt;td&gt;Id&lt;/td&gt;&lt;/tr&gt;&lt;tr&gt;&lt;td&gt;&lt;br&gt;&lt;/td&gt;&lt;td&gt;name&lt;/td&gt;&lt;/tr&gt;&lt;tr&gt;&lt;td&gt;&lt;/td&gt;&lt;td&gt;surname&lt;br&gt;age&lt;br&gt;bio&lt;br&gt;review_id&lt;/td&gt;&lt;/tr&gt;&lt;/tbody&gt;&lt;/table&gt;" style="verticalAlign=top;align=left;overflow=fill;html=1;whiteSpace=wrap;" vertex="1" parent="WIyWlLk6GJQsqaUBKTNV-1">
          <mxGeometry x="500" y="920" width="110" height="120" as="geometry" />
        </mxCell>
        <mxCell id="KzeRNUWzLIYxNrCnrnHk-106" style="edgeStyle=orthogonalEdgeStyle;rounded=0;orthogonalLoop=1;jettySize=auto;html=1;entryX=1;entryY=0.25;entryDx=0;entryDy=0;endArrow=none;endFill=0;" edge="1" parent="WIyWlLk6GJQsqaUBKTNV-1" source="KzeRNUWzLIYxNrCnrnHk-105" target="KzeRNUWzLIYxNrCnrnHk-96">
          <mxGeometry relative="1" as="geometry" />
        </mxCell>
        <mxCell id="KzeRNUWzLIYxNrCnrnHk-107" style="edgeStyle=orthogonalEdgeStyle;rounded=0;orthogonalLoop=1;jettySize=auto;html=1;entryX=0;entryY=0.25;entryDx=0;entryDy=0;endArrow=none;endFill=0;" edge="1" parent="WIyWlLk6GJQsqaUBKTNV-1" source="KzeRNUWzLIYxNrCnrnHk-105" target="KzeRNUWzLIYxNrCnrnHk-104">
          <mxGeometry relative="1" as="geometry" />
        </mxCell>
        <mxCell id="KzeRNUWzLIYxNrCnrnHk-105" value="&lt;span style=&quot;font-size: 7px;&quot;&gt;player_tournament&lt;/span&gt;" style="html=1;whiteSpace=wrap;aspect=fixed;shape=isoRectangle;" vertex="1" parent="WIyWlLk6GJQsqaUBKTNV-1">
          <mxGeometry x="380" y="952" width="80" height="48" as="geometry" />
        </mxCell>
        <UserObject label="N" placeholders="1" name="Variable" id="KzeRNUWzLIYxNrCnrnHk-109">
          <mxCell style="text;html=1;strokeColor=none;fillColor=none;align=center;verticalAlign=middle;whiteSpace=wrap;overflow=hidden;" vertex="1" parent="WIyWlLk6GJQsqaUBKTNV-1">
            <mxGeometry x="180" y="926" width="20" height="20" as="geometry" />
          </mxCell>
        </UserObject>
        <UserObject label="N" placeholders="1" name="Variable" id="KzeRNUWzLIYxNrCnrnHk-112">
          <mxCell style="text;html=1;strokeColor=none;fillColor=none;align=center;verticalAlign=middle;whiteSpace=wrap;overflow=hidden;" vertex="1" parent="WIyWlLk6GJQsqaUBKTNV-1">
            <mxGeometry x="470" y="922" width="20" height="20" as="geometry" />
          </mxCell>
        </UserObject>
        <mxCell id="KzeRNUWzLIYxNrCnrnHk-142" style="edgeStyle=orthogonalEdgeStyle;rounded=0;orthogonalLoop=1;jettySize=auto;html=1;exitX=1;exitY=0.25;exitDx=0;exitDy=0;endArrow=none;endFill=0;" edge="1" parent="WIyWlLk6GJQsqaUBKTNV-1" source="KzeRNUWzLIYxNrCnrnHk-113" target="KzeRNUWzLIYxNrCnrnHk-124">
          <mxGeometry relative="1" as="geometry" />
        </mxCell>
        <mxCell id="KzeRNUWzLIYxNrCnrnHk-113" value="&lt;div style=&quot;box-sizing:border-box;width:100%;background:#e4e4e4;padding:2px;&quot;&gt;&amp;nbsp; &amp;nbsp; &amp;nbsp; &amp;nbsp; &amp;nbsp; review&lt;/div&gt;&lt;table style=&quot;width:100%;font-size:1em;&quot; cellpadding=&quot;2&quot; cellspacing=&quot;0&quot;&gt;&lt;tbody&gt;&lt;tr&gt;&lt;td&gt;PK&lt;/td&gt;&lt;td&gt;Id&lt;/td&gt;&lt;/tr&gt;&lt;tr&gt;&lt;td&gt;&lt;br&gt;&lt;/td&gt;&lt;td&gt;title&lt;/td&gt;&lt;/tr&gt;&lt;tr&gt;&lt;td&gt;&lt;br&gt;&lt;br&gt;FK&lt;/td&gt;&lt;td&gt;text&lt;br&gt;rating&lt;br&gt;videogame_id&lt;/td&gt;&lt;/tr&gt;&lt;/tbody&gt;&lt;/table&gt;" style="verticalAlign=top;align=left;overflow=fill;html=1;whiteSpace=wrap;" vertex="1" parent="WIyWlLk6GJQsqaUBKTNV-1">
          <mxGeometry x="830" y="920" width="110" height="100" as="geometry" />
        </mxCell>
        <mxCell id="KzeRNUWzLIYxNrCnrnHk-116" style="edgeStyle=orthogonalEdgeStyle;rounded=0;orthogonalLoop=1;jettySize=auto;html=1;entryX=0.999;entryY=0.899;entryDx=0;entryDy=0;endArrow=none;endFill=0;entryPerimeter=0;" edge="1" parent="WIyWlLk6GJQsqaUBKTNV-1" source="KzeRNUWzLIYxNrCnrnHk-115" target="KzeRNUWzLIYxNrCnrnHk-104">
          <mxGeometry relative="1" as="geometry" />
        </mxCell>
        <mxCell id="KzeRNUWzLIYxNrCnrnHk-146" style="edgeStyle=orthogonalEdgeStyle;rounded=0;orthogonalLoop=1;jettySize=auto;html=1;entryX=0;entryY=0.25;entryDx=0;entryDy=0;endArrow=none;endFill=0;" edge="1" parent="WIyWlLk6GJQsqaUBKTNV-1" source="KzeRNUWzLIYxNrCnrnHk-115" target="KzeRNUWzLIYxNrCnrnHk-113">
          <mxGeometry relative="1" as="geometry" />
        </mxCell>
        <mxCell id="KzeRNUWzLIYxNrCnrnHk-115" value="" style="html=1;whiteSpace=wrap;aspect=fixed;shape=isoRectangle;" vertex="1" parent="WIyWlLk6GJQsqaUBKTNV-1">
          <mxGeometry x="684" y="922" width="80" height="48" as="geometry" />
        </mxCell>
        <UserObject label="1" placeholders="1" name="Variable" id="KzeRNUWzLIYxNrCnrnHk-118">
          <mxCell style="text;html=1;strokeColor=none;fillColor=none;align=center;verticalAlign=middle;whiteSpace=wrap;overflow=hidden;" vertex="1" parent="WIyWlLk6GJQsqaUBKTNV-1">
            <mxGeometry x="620" y="1000" width="20" height="20" as="geometry" />
          </mxCell>
        </UserObject>
        <UserObject label="N" placeholders="1" name="Variable" id="KzeRNUWzLIYxNrCnrnHk-119">
          <mxCell style="text;html=1;strokeColor=none;fillColor=none;align=center;verticalAlign=middle;whiteSpace=wrap;overflow=hidden;" vertex="1" parent="WIyWlLk6GJQsqaUBKTNV-1">
            <mxGeometry x="800" y="920" width="20" height="20" as="geometry" />
          </mxCell>
        </UserObject>
        <mxCell id="KzeRNUWzLIYxNrCnrnHk-124" value="" style="html=1;whiteSpace=wrap;aspect=fixed;shape=isoRectangle;" vertex="1" parent="WIyWlLk6GJQsqaUBKTNV-1">
          <mxGeometry x="730" y="690" width="80" height="48" as="geometry" />
        </mxCell>
        <UserObject label="N" placeholders="1" name="Variable" id="KzeRNUWzLIYxNrCnrnHk-127">
          <mxCell style="text;html=1;strokeColor=none;fillColor=none;align=center;verticalAlign=middle;whiteSpace=wrap;overflow=hidden;" vertex="1" parent="WIyWlLk6GJQsqaUBKTNV-1">
            <mxGeometry x="970" y="926" width="20" height="20" as="geometry" />
          </mxCell>
        </UserObject>
        <UserObject label="1" placeholders="1" name="Variable" id="KzeRNUWzLIYxNrCnrnHk-129">
          <mxCell style="text;html=1;strokeColor=none;fillColor=none;align=center;verticalAlign=middle;whiteSpace=wrap;overflow=hidden;" vertex="1" parent="WIyWlLk6GJQsqaUBKTNV-1">
            <mxGeometry x="764" y="440" width="20" height="20" as="geometry" />
          </mxCell>
        </UserObject>
        <mxCell id="KzeRNUWzLIYxNrCnrnHk-136" style="edgeStyle=orthogonalEdgeStyle;rounded=0;orthogonalLoop=1;jettySize=auto;html=1;entryX=0.997;entryY=0.162;entryDx=0;entryDy=0;entryPerimeter=0;endArrow=none;endFill=0;" edge="1" parent="WIyWlLk6GJQsqaUBKTNV-1" source="KzeRNUWzLIYxNrCnrnHk-124" target="KzeRNUWzLIYxNrCnrnHk-51">
          <mxGeometry relative="1" as="geometry" />
        </mxCell>
        <mxCell id="KzeRNUWzLIYxNrCnrnHk-137" style="edgeStyle=orthogonalEdgeStyle;rounded=0;orthogonalLoop=1;jettySize=auto;html=1;entryX=0.006;entryY=0.173;entryDx=0;entryDy=0;entryPerimeter=0;endArrow=none;endFill=0;" edge="1" parent="WIyWlLk6GJQsqaUBKTNV-1" source="KzeRNUWzLIYxNrCnrnHk-79" target="KzeRNUWzLIYxNrCnrnHk-51">
          <mxGeometry relative="1" as="geometry" />
        </mxCell>
        <mxCell id="KzeRNUWzLIYxNrCnrnHk-138" style="edgeStyle=orthogonalEdgeStyle;rounded=0;orthogonalLoop=1;jettySize=auto;html=1;exitX=0.5;exitY=1;exitDx=0;exitDy=0;" edge="1" parent="WIyWlLk6GJQsqaUBKTNV-1" source="KzeRNUWzLIYxNrCnrnHk-51" target="KzeRNUWzLIYxNrCnrnHk-51">
          <mxGeometry relative="1" as="geometry" />
        </mxCell>
        <mxCell id="KzeRNUWzLIYxNrCnrnHk-143" value="&lt;div style=&quot;box-sizing:border-box;width:100%;background:#e4e4e4;padding:2px;&quot;&gt;&amp;nbsp; &amp;nbsp;&lt;span style=&quot;white-space: pre;&quot;&gt;&#x9;&lt;/span&gt;prize_type&lt;/div&gt;&lt;table style=&quot;width:100%;font-size:1em;&quot; cellpadding=&quot;2&quot; cellspacing=&quot;0&quot;&gt;&lt;tbody&gt;&lt;tr&gt;&lt;td&gt;PK&lt;/td&gt;&lt;td&gt;Id&lt;/td&gt;&lt;/tr&gt;&lt;tr&gt;&lt;td&gt;&lt;br&gt;&lt;/td&gt;&lt;td&gt;name&lt;/td&gt;&lt;/tr&gt;&lt;tr&gt;&lt;td&gt;&lt;/td&gt;&lt;td&gt;&lt;br&gt;&lt;/td&gt;&lt;/tr&gt;&lt;/tbody&gt;&lt;/table&gt;" style="verticalAlign=top;align=left;overflow=fill;html=1;whiteSpace=wrap;" vertex="1" parent="WIyWlLk6GJQsqaUBKTNV-1">
          <mxGeometry x="230" y="720" width="120" height="60" as="geometry" />
        </mxCell>
        <mxCell id="KzeRNUWzLIYxNrCnrnHk-153" style="edgeStyle=orthogonalEdgeStyle;rounded=0;orthogonalLoop=1;jettySize=auto;html=1;entryX=0.75;entryY=1;entryDx=0;entryDy=0;endArrow=none;endFill=0;" edge="1" parent="WIyWlLk6GJQsqaUBKTNV-1" source="KzeRNUWzLIYxNrCnrnHk-154" target="KzeRNUWzLIYxNrCnrnHk-51">
          <mxGeometry relative="1" as="geometry" />
        </mxCell>
        <mxCell id="KzeRNUWzLIYxNrCnrnHk-156" style="edgeStyle=orthogonalEdgeStyle;rounded=0;orthogonalLoop=1;jettySize=auto;html=1;exitX=1;exitY=0.75;exitDx=0;exitDy=0;endArrow=none;endFill=0;" edge="1" parent="WIyWlLk6GJQsqaUBKTNV-1" source="KzeRNUWzLIYxNrCnrnHk-144" target="KzeRNUWzLIYxNrCnrnHk-154">
          <mxGeometry relative="1" as="geometry" />
        </mxCell>
        <mxCell id="KzeRNUWzLIYxNrCnrnHk-144" value="&lt;div style=&quot;box-sizing:border-box;width:100%;background:#e4e4e4;padding:2px;&quot;&gt;&amp;nbsp; &amp;nbsp;&lt;span style=&quot;white-space: pre;&quot;&gt;&#x9;&lt;/span&gt;&amp;nbsp; &amp;nbsp; &amp;nbsp;prize&lt;/div&gt;&lt;table style=&quot;width:100%;font-size:1em;&quot; cellpadding=&quot;2&quot; cellspacing=&quot;0&quot;&gt;&lt;tbody&gt;&lt;tr&gt;&lt;td&gt;PK&lt;/td&gt;&lt;td&gt;Id&lt;/td&gt;&lt;/tr&gt;&lt;tr&gt;&lt;td&gt;&lt;br&gt;&lt;/td&gt;&lt;td&gt;year&lt;/td&gt;&lt;/tr&gt;&lt;tr&gt;&lt;td&gt;FK&lt;br&gt;FK&lt;/td&gt;&lt;td&gt;videogame_id&lt;br&gt;prize_type_id&lt;br&gt;&lt;/td&gt;&lt;/tr&gt;&lt;/tbody&gt;&lt;/table&gt;" style="verticalAlign=top;align=left;overflow=fill;html=1;whiteSpace=wrap;" vertex="1" parent="WIyWlLk6GJQsqaUBKTNV-1">
          <mxGeometry x="500" y="750" width="120" height="90" as="geometry" />
        </mxCell>
        <mxCell id="KzeRNUWzLIYxNrCnrnHk-149" style="edgeStyle=orthogonalEdgeStyle;rounded=0;orthogonalLoop=1;jettySize=auto;html=1;entryX=1;entryY=0.5;entryDx=0;entryDy=0;endArrow=none;endFill=0;" edge="1" parent="WIyWlLk6GJQsqaUBKTNV-1" source="KzeRNUWzLIYxNrCnrnHk-148" target="KzeRNUWzLIYxNrCnrnHk-143">
          <mxGeometry relative="1" as="geometry" />
        </mxCell>
        <mxCell id="KzeRNUWzLIYxNrCnrnHk-148" value="" style="html=1;whiteSpace=wrap;aspect=fixed;shape=isoRectangle;" vertex="1" parent="WIyWlLk6GJQsqaUBKTNV-1">
          <mxGeometry x="380" y="690" width="80" height="48" as="geometry" />
        </mxCell>
        <mxCell id="KzeRNUWzLIYxNrCnrnHk-150" style="edgeStyle=orthogonalEdgeStyle;rounded=0;orthogonalLoop=1;jettySize=auto;html=1;entryX=-0.002;entryY=0.865;entryDx=0;entryDy=0;entryPerimeter=0;endArrow=none;endFill=0;" edge="1" parent="WIyWlLk6GJQsqaUBKTNV-1" source="KzeRNUWzLIYxNrCnrnHk-148" target="KzeRNUWzLIYxNrCnrnHk-144">
          <mxGeometry relative="1" as="geometry" />
        </mxCell>
        <UserObject label="N" placeholders="1" name="Variable" id="KzeRNUWzLIYxNrCnrnHk-151">
          <mxCell style="text;html=1;strokeColor=none;fillColor=none;align=center;verticalAlign=middle;whiteSpace=wrap;overflow=hidden;" vertex="1" parent="WIyWlLk6GJQsqaUBKTNV-1">
            <mxGeometry x="360" y="760" width="20" height="20" as="geometry" />
          </mxCell>
        </UserObject>
        <UserObject label="1" placeholders="1" name="Variable" id="KzeRNUWzLIYxNrCnrnHk-152">
          <mxCell style="text;html=1;strokeColor=none;fillColor=none;align=center;verticalAlign=middle;whiteSpace=wrap;overflow=hidden;" vertex="1" parent="WIyWlLk6GJQsqaUBKTNV-1">
            <mxGeometry x="450" y="805" width="20" height="20" as="geometry" />
          </mxCell>
        </UserObject>
        <mxCell id="KzeRNUWzLIYxNrCnrnHk-154" value="" style="html=1;whiteSpace=wrap;aspect=fixed;shape=isoRectangle;" vertex="1" parent="WIyWlLk6GJQsqaUBKTNV-1">
          <mxGeometry x="630" y="690" width="80" height="48" as="geometry" />
        </mxCell>
        <UserObject label="N" placeholders="1" name="Variable" id="KzeRNUWzLIYxNrCnrnHk-157">
          <mxCell style="text;html=1;strokeColor=none;fillColor=none;align=center;verticalAlign=middle;whiteSpace=wrap;overflow=hidden;" vertex="1" parent="WIyWlLk6GJQsqaUBKTNV-1">
            <mxGeometry x="630" y="785" width="20" height="20" as="geometry" />
          </mxCell>
        </UserObject>
        <UserObject label="1" placeholders="1" name="Variable" id="KzeRNUWzLIYxNrCnrnHk-158">
          <mxCell style="text;html=1;strokeColor=none;fillColor=none;align=center;verticalAlign=middle;whiteSpace=wrap;overflow=hidden;" vertex="1" parent="WIyWlLk6GJQsqaUBKTNV-1">
            <mxGeometry x="670" y="572" width="20" height="20" as="geometry" />
          </mxCell>
        </UserObject>
      </root>
    </mxGraphModel>
  </diagram>
</mxfile>
